<svg xmlns="http://www.w3.org/2000/svg" xmlns:xlink="http://www.w3.org/1999/xlink" width="1916" height="1080" viewBox="0 0 1916 1080">
  <defs>
    <linearGradient id="linear-gradient" x1="0.5" x2="0.5" y2="1" gradientUnits="objectBoundingBox">
      <stop offset="0" stop-color="#290b9d"/>
      <stop offset="1" stop-color="#210890"/>
    </linearGradient>
    <linearGradient id="linear-gradient-2" x1="0.5" x2="0.5" y2="1" gradientUnits="objectBoundingBox">
      <stop offset="0" stop-color="#23136a"/>
      <stop offset="1" stop-color="#210699"/>
    </linearGradient>
    <linearGradient id="linear-gradient-3" x1="0.5" x2="0.5" y2="1" gradientUnits="objectBoundingBox">
      <stop offset="0" stop-color="#3614a3"/>
      <stop offset="1" stop-color="#210699"/>
    </linearGradient>
  </defs>
  <g id="Group_1" data-name="Group 1" transform="translate(-4)">
    <g id="background" transform="translate(4)">
      <path id="Path_1" data-name="Path 1" d="M486,705.8C376.7,684,262.6,673.6,150.7,686.4A704.143,704.143,0,0,0,0,719.8V800H843.8C727.9,766.8,613,731.9,496.2,707.8,492.8,707.1,489.4,706.5,486,705.8Z" transform="translate(0 280)" fill="url(#linear-gradient)"/>
      <path id="Path_2" data-name="Path 2" d="M1915.9,0H0V971.761a762.984,762.984,0,0,1,180.454-45.226c133.993-17.146,270.621-3.24,401.5,26.191,4.071.945,8.143,1.89,12.214,2.7,139.861,32.4,277.446,79.653,416.229,124.474h905.5Z" fill="url(#linear-gradient-2)"/>
      <path id="Path_3" data-name="Path 3" d="M572.854,788.532c3.832,1.086,7.664,2.307,11.376,3.393,234.937,71.253,465.444,181.186,710.679,239.681,208.594,49.673,418.5,39.63,620.991-13.843V0H0V780.253a663.68,663.68,0,0,1,192.907-41.937C321.392,729.358,449.877,752.159,572.854,788.532Z" fill="url(#linear-gradient-3)"/>
      <path id="Path_4" data-name="Path 4" d="M0,0V429.4c66.578-18.4,135.911-27.3,205.243-27.7,123.1-.8,243.322,22.7,358.4,54.5,3.592,1,7.065,2,10.657,3,219.852,62,437.907,146.1,673.446,192.1,223.564,43.7,450.6,34.4,668.057-12.6V0Z" fill="url(#linear-gradient-2)"/>
      <path id="Path_5" data-name="Path 5" d="M217.694,259.4c117.588,6,229.788,35.2,336.839,72.1,3.353,1.1,6.586,2.3,9.939,3.4,204.762,71.6,410.362,158.5,636.2,207.7,238.051,51.8,483.046,40.8,715.229-14.8V0H0V283.2A686.14,686.14,0,0,1,217.694,259.4Z" fill="url(#linear-gradient-2)"/>
      <path id="Path_6" data-name="Path 6" d="M1915.88,0H0V136.3a611.9,611.9,0,0,1,230.145-19.2c112.079,12.1,216.135,47.7,315.282,89.6,3.113,1.3,6.107,2.6,9.22,3.9,189.672,81.1,382.817,170.9,599.072,223.2,252.058,61,515.851,49,762.281-16.6V0Z" fill="url(#linear-gradient-2)"/>
      <path id="Path_7" data-name="Path 7" d="M454.9,86.3C600.7,177,751.6,269.3,924.1,325c208.6,67.4,431.3,60.8,637.9-5.3,12.8-4.1,25.4-8.4,38.1-12.9V0H288.1c56,21.3,108.7,50.6,159.7,82C450.2,83.4,452.5,84.9,454.9,86.3Z" transform="translate(315.9)" fill="url(#linear-gradient-2)"/>
      <path id="Path_8" data-name="Path 8" d="M1600,0H498C616.1,85.8,741.5,164.5,884.8,216.2c191.8,69.2,400,74.7,595,21.1a977.889,977.889,0,0,0,120.3-41.7V0Z" transform="translate(315.9)" fill="url(#linear-gradient-2)"/>
      <path id="Path_9" data-name="Path 9" d="M1397.5,154.8A860.862,860.862,0,0,0,1536.1,111c21.7-8.9,43-18.8,63.9-29.5V0H643.4c62.9,41.7,129.7,78.2,202.1,107.4C1020.4,178.1,1214.2,196.1,1397.5,154.8Z" transform="translate(315.9)" fill="url(#linear-gradient-2)"/>
      <path id="Path_10" data-name="Path 10" d="M1315.3,72.4A733.883,733.883,0,0,0,1532.1,0h-723C966.8,71,1144.7,101,1315.3,72.4Z" transform="translate(315.9)" fill="url(#linear-gradient-2)"/>
    </g>
  </g>
</svg>
