<?xml version="1.0" encoding="utf-8"?><svg xmlns="http://www.w3.org/2000/svg" xmlns:xlink="http://www.w3.org/1999/xlink" width="2544" height="1701" preserveAspectRatio="xMidYMid" viewBox="0 0 2544 1701" style="z-index:1;margin-right:-2px;display:block;background-repeat-y:initial;background-repeat-x:initial;background-color:rgb(241, 242, 243);animation-play-state:paused" ><g transform="" style="animation-play-state:paused" ><linearGradient id="lg-0.3525840613249158" x1="0" x2="1" y1="0" y2="0" style="animation-play-state:paused" ><stop stop-color="#22026a" offset="0" style="animation-play-state:paused" ></stop>

  
<stop stop-color="#686be2" offset="1" style="animation-play-state:paused" ></stop></linearGradient>
<path d="M 0 0 L 0 1610.89 Q 636 1504.88 1272 1463.84 T 2544 1235.74 L 2544 0 Z" fill="url(#lg-0.3525840613249158)" opacity="0.4" style="opacity:0.4;animation-play-state:paused" ></path>
<path d="M 0 0 L 0 1663.92 Q 636 1532.95 1272 1500.88 T 2544 1268.23 L 2544 0 Z" fill="url(#lg-0.3525840613249158)" opacity="0.4" style="opacity:0.4;animation-play-state:paused" ></path>
<path d="M 0 0 L 0 1618.74 Q 636 1516.41 1272 1478.07 T 2544 1321.75 L 2544 0 Z" fill="url(#lg-0.3525840613249158)" opacity="0.4" style="opacity:0.4;animation-play-state:paused" ></path>
<path d="M 0 0 L 0 1724.36 Q 636 1537.64 1272 1496.2 T 2544 1314.85 L 2544 0 Z" fill="url(#lg-0.3525840613249158)" opacity="0.4" style="opacity:0.4;animation-play-state:paused" ></path>
<path d="M 0 0 L 0 1667.66 Q 636 1563.65 1272 1536.18 T 2544 1159.41 L 2544 0 Z" fill="url(#lg-0.3525840613249158)" opacity="0.4" style="opacity:0.4;animation-play-state:paused" ></path>
<path d="M 0 0 L 0 1775.94 Q 636 1535.46 1272 1499.7 T 2544 1217.86 L 2544 0 Z" fill="url(#lg-0.3525840613249158)" opacity="0.4" style="opacity:0.4;animation-play-state:paused" ></path></g></svg>