<?xml version="1.0" encoding="utf-8"?><svg xmlns="http://www.w3.org/2000/svg" xmlns:xlink="http://www.w3.org/1999/xlink" width="2544" height="1701" preserveAspectRatio="xMidYMid" viewBox="0 0 2544 1701" style="z-index:1;margin-right:-2px;display:block;background-repeat-y:initial;background-repeat-x:initial;background-color:rgb(241, 242, 243);animation-play-state:paused" ><g transform="" style="animation-play-state:paused" ><linearGradient id="lg-0.9215577948103431" x1="0" x2="1" y1="0" y2="0" style="animation-play-state:paused" ><stop stop-color="#22026a" offset="0" style="animation-play-state:paused" ></stop>

  
<stop stop-color="#686be2" offset="1" style="animation-play-state:paused" ></stop></linearGradient>
<path d="M 0 0 L 0 1803.62 Q 636 1495.83 1272 1472.07 T 2544 1319.74 L 2544 0 Z" fill="url(#lg-0.9215577948103431)" opacity="0.4" style="opacity:0.4;animation-play-state:paused" ></path>
<path d="M 0 0 L 0 1740.46 Q 636 1483.17 1272 1455.83 T 2544 1207.59 L 2544 0 Z" fill="url(#lg-0.9215577948103431)" opacity="0.4" style="opacity:0.4;animation-play-state:paused" ></path>
<path d="M 0 0 L 0 1653.8 Q 636 1581.28 1272 1546.49 T 2544 1261.92 L 2544 0 Z" fill="url(#lg-0.9215577948103431)" opacity="0.4" style="opacity:0.4;animation-play-state:paused" ></path>
<path d="M 0 0 L 0 1699.38 Q 636 1541.66 1272 1515.16 T 2544 1337.96 L 2544 0 Z" fill="url(#lg-0.9215577948103431)" opacity="0.4" style="opacity:0.4;animation-play-state:paused" ></path>
<path d="M 0 0 L 0 1695.2 Q 636 1527.81 1272 1502.15 T 2544 1313.32 L 2544 0 Z" fill="url(#lg-0.9215577948103431)" opacity="0.4" style="opacity:0.4;animation-play-state:paused" ></path>
<path d="M 0 0 L 0 1677.1 Q 636 1578.66 1272 1545.42 T 2544 1347.56 L 2544 0 Z" fill="url(#lg-0.9215577948103431)" opacity="0.4" style="opacity:0.4;animation-play-state:paused" ></path></g></svg>